<svg xmlns="http://www.w3.org/2000/svg" viewBox="0 0 340 92" role="img" aria-label="Liver Transplantation Society of India (LTSI)">
  <!-- PLACEHOLDER — replace with the official LTSI logo asset -->
  <!-- sprout mark -->
  <g transform="translate(8,6)">
    <path d="M40 80 C40 56 40 44 40 30" fill="none" stroke="#1F7A3D" stroke-width="6" stroke-linecap="round"/>
    <path d="M40 44 C22 44 12 34 12 18 C30 18 40 28 40 44 Z" fill="#2E9A4E"/>
    <path d="M40 38 C58 38 70 28 72 12 C54 10 42 20 40 38 Z" fill="#1F7A3D"/>
    <path d="M40 30 C44 16 56 6 70 4 C70 4 60 2 52 8 C45 13 41 21 40 30 Z" fill="#D5342B"/>
  </g>
  <!-- wordmark -->
  <text x="92" y="46" font-family="Arial, Helvetica, sans-serif" font-size="38" font-weight="700" fill="#1F7A3D" letter-spacing="2">LTSI</text>
  <text x="93" y="68" font-family="Arial, Helvetica, sans-serif" font-size="11.5" font-weight="500" fill="#4A4A4A" letter-spacing="0.3">Liver Transplantation Society of India</text>
</svg>
